<svg width="59" height="26" viewBox="0 0 59 26" fill="none" xmlns="http://www.w3.org/2000/svg">
<path d="M9.36 8.496C7.728 8.544 6.288 9 5.04 9.864C3.816 10.728 2.952 11.916 2.448 13.428V25.092H0V6.336H2.304V10.836C2.952 9.516 3.804 8.448 4.86 7.632C5.94 6.816 7.08 6.36 8.28 6.264C8.52 6.24 8.724 6.228 8.892 6.228C9.06 6.228 9.216 6.24 9.36 6.264V8.496Z" fill="#252525"/>
<path d="M25.2211 24.192C24.9331 24.312 24.4051 24.528 23.6371 24.84C22.8691 25.152 21.9811 25.308 20.9731 25.308C19.9171 25.308 18.9931 25.008 18.2011 24.408C17.4091 23.808 17.0131 22.908 17.0131 21.708V8.28H14.4211V6.336H17.0131V0H19.4611V6.336H23.7811V8.28H19.4611V21.024C19.5091 21.72 19.7491 22.236 20.1811 22.572C20.6371 22.884 21.1531 23.04 21.7291 23.04C22.4011 23.04 23.0011 22.932 23.5291 22.716C24.0811 22.476 24.4291 22.308 24.5731 22.212L25.2211 24.192Z" fill="#252525"/>
<path d="M47.6477 25.092H45.1997V14.616C45.1997 12.408 44.8637 10.8 44.1917 9.792C43.5437 8.76 42.5357 8.244 41.1677 8.244C40.2077 8.244 39.2597 8.484 38.3237 8.964C37.3877 9.42 36.5597 10.056 35.8397 10.872C35.1437 11.664 34.6397 12.576 34.3277 13.608V25.092H31.8797V6.336H34.1117V10.584C34.8557 9.216 35.9477 8.112 37.3877 7.272C38.8277 6.432 40.3877 6.012 42.0677 6.012C43.4597 6.012 44.5637 6.348 45.3797 7.02C46.1957 7.668 46.7717 8.604 47.1077 9.828C47.4677 11.028 47.6477 12.456 47.6477 14.112V25.092Z" fill="#252525"/>
<path d="M56.108 25.092V21.564H58.232V25.092H56.108Z" fill="#252525"/>
</svg>
